<svg xmlns="http://www.w3.org/2000/svg" xmlns:xlink="http://www.w3.org/1999/xlink" viewBox="0 0 818.29 659.96"><defs><style>.cls-1,.cls-12,.cls-3,.cls-5,.cls-7{fill:none;}.cls-2{clip-path:url(#clip-path);}.cls-3{stroke:#e63b1d;}.cls-12,.cls-3,.cls-7{stroke-miterlimit:10;}.cls-4{fill:#fece01;}.cls-5{stroke:#000;stroke-miterlimit:10;stroke-width:1.01px;}.cls-6{fill:#179379;}.cls-7{stroke:#0c0b0e;}.cls-8{fill:#f2beca;}.cls-9{fill:#e63b1d;}.cls-10{fill:#0e0e0e;}.cls-11{fill:#efe8e2;}.cls-12{stroke:#0e0e0e;}</style><clipPath id="clip-path" transform="translate(68.29 89.15)"><rect class="cls-1" width="750" height="500"/></clipPath></defs><g id="Layer_2" data-name="Layer 2"><g id="_레이어_2" data-name=" 레이어 2"><g id="OBJECTS"><g class="cls-2"><path class="cls-3" d="M170.65,168.9c-2.31-2.31,0-213.78,0-213.78L273.06,192.9V-44.88L385.79,184.59" transform="translate(68.29 89.15)"/><rect class="cls-4" x="68.29" y="235.1" width="306.46" height="87.7"/><rect class="cls-5" x="-47.25" y="6.42" width="98.13" height="98.13" transform="translate(29.58 106.69) rotate(-45)"/><rect class="cls-5" x="-28.6" y="25.07" width="60.83" height="60.83" transform="translate(29.58 106.69) rotate(-45)"/><rect class="cls-6" x="-13.1" y="40.57" width="29.84" height="29.84" transform="translate(29.58 106.69) rotate(-45)"/><path class="cls-7" d="M459.87,267.54a49.38,49.38,0,0,0-98.51-5.05h-.26v102.7h98.21s.56-95.11.56-97.65Z" transform="translate(68.29 89.15)"/><path class="cls-6" d="M689.54,180l-27.16,1.64,20.36-18a3.44,3.44,0,0,0,.27-.27,3.16,3.16,0,0,0-4.73-4.18l-18,20.36,1.64-27.15V152a3.16,3.16,0,1,0-6.3.38l1.64,27.15-18-20.36a3.44,3.44,0,0,0-.27-.27,3.16,3.16,0,1,0-4.19,4.72l20.36,18L627.92,180h-.38a3.16,3.16,0,0,0,.38,6.3l27.16-1.18h-.37c3.93,0,11.59.36,15.23,0l19.6,1.18h.38a3.16,3.16,0,0,0-.38-6.3Z" transform="translate(68.29 89.15)"/><circle class="cls-8" cx="466.35" cy="396.68" r="3.35"/><circle class="cls-8" cx="491.2" cy="396.68" r="3.35"/><path class="cls-8" d="M401.4,330.78a3.35,3.35,0,1,1-3.35-3.35A3.35,3.35,0,0,1,401.4,330.78Z" transform="translate(68.29 89.15)"/><path class="cls-8" d="M426.25,330.78a3.35,3.35,0,1,1-3.35-3.35A3.35,3.35,0,0,1,426.25,330.78Z" transform="translate(68.29 89.15)"/><circle class="cls-9" cx="694.43" cy="307.35" r="7.65"/><circle class="cls-9" cx="659.38" cy="218.23" r="7.65" transform="translate(436.64 938.02) rotate(-83.54)"/><path class="cls-9" d="M692.51,225.84a7.65,7.65,0,1,0-7.65-7.65A7.65,7.65,0,0,0,692.51,225.84Z" transform="translate(68.29 89.15)"/><path class="cls-6" d="M258.83,317.93h-.16v-.28H224.85v28.81a29.71,29.71,0,0,0,4.48,15.9c4.32,6.84,12.76,13.94,29.17,13.94h.16v-1l.16,0v1H259c16.41,0,24.85-7.1,29.17-13.94a29.71,29.71,0,0,0,4.48-15.9V317.65H258.81v.28Z" transform="translate(68.29 89.15)"/><path d="M105.77,234a46.73,46.73,0,0,0-19,10.89A41.52,41.52,0,0,1,91.59,234a31.67,31.67,0,0,1,23.92-14.54l-.17-7-.11-7A46.92,46.92,0,0,0,85.75,219c2.25-10.41,6.93-18.24,14-23.35a31.61,31.61,0,0,1,15.77-5.89l-.17-7-.11-7a46.6,46.6,0,0,0-38.8,27.12,46.64,46.64,0,0,0-38.8-27.12l-.28,14a31.61,31.61,0,0,1,15.77,5.89c7.06,5.11,11.73,12.94,14,23.35a46.81,46.81,0,0,0-29.48-13.58l-.28,14a31.61,31.61,0,0,1,15.77,5.89A32.05,32.05,0,0,1,61.27,234a41.67,41.67,0,0,1,4.85,10.89,46.73,46.73,0,0,0-19-10.89,40.15,40.15,0,0,0-9.46-1.73l0,1.73-.24,12.27a31.61,31.61,0,0,1,15.77,5.89c10.32,7.47,15.55,20.74,15.55,39.42H84.19c0-18.69,5.23-32,15.55-39.42a31.61,31.61,0,0,1,15.77-5.89l-.17-7-.08-5.27,0-1.73a40.15,40.15,0,0,0-9.46,1.73Z" transform="translate(68.29 89.15)"/><path class="cls-10" d="M82,443.83V419h25V393.72h25V419h25v24.82h23.78V369.69A61.74,61.74,0,0,0,119,308h0a61.53,61.53,0,0,0-45.47,20A13.71,13.71,0,0,1,60,351.74a61.88,61.88,0,0,0-2.66,18v89.77h.2V443.84H82Z" transform="translate(68.29 89.15)"/><polygon class="cls-9" points="249.83 532.98 249.07 532.98 225.3 532.98 225.3 508.15 200.3 508.15 200.3 482.86 175.31 482.86 175.31 508.15 150.32 508.15 150.32 532.98 125.79 532.98 125.79 548.6 125.79 558.27 100.79 558.27 100.79 570.72 125.79 570.72 150.78 570.72 175.77 570.72 199.84 570.72 224.84 570.72 249.83 570.72 274.82 570.72 274.82 558.27 249.83 558.27 249.83 532.98"/><path class="cls-4" d="M80.17,339.64a13.72,13.72,0,1,0-13.72,13.72A13.7,13.7,0,0,0,80.17,339.64Z" transform="translate(68.29 89.15)"/><polygon class="cls-9" points="528.39 201.26 512.26 183.42 533.52 172.18 509.7 168.88 518.76 146.6 498.39 159.39 491.01 136.5 483.63 159.39 463.26 146.6 472.32 168.88 448.5 172.18 469.75 183.42 453.62 201.26 477.13 196.21 476.24 220.24 491.01 201.26 505.77 220.24 504.88 196.21 528.39 201.26"/><polygon class="cls-6" points="238.31 195.3 238.31 235.1 278.11 235.1 238.31 195.3"/><polygon class="cls-6" points="278.11 195.3 278.11 235.1 317.91 235.1 278.11 195.3"/><path d="M563.05,328.15a75.38,75.38,0,0,0-5,26.62h73.45l-68.47-26.62Z" transform="translate(68.29 89.15)"/><path d="M633.29,279.55A75.47,75.47,0,0,0,607,284.42L633.29,353Z" transform="translate(68.29 89.15)"/><path d="M660.72,284.53a75.38,75.38,0,0,0-26.62-5V353l26.62-68.47Z" transform="translate(68.29 89.15)"/><path d="M579.93,302a75.76,75.76,0,0,0-16.58,25.4L632,354.1,579.93,302Z" transform="translate(68.29 89.15)"/><path d="M606.19,284.72a75.77,75.77,0,0,0-25.68,16.69l52.12,52.12Z" transform="translate(68.29 89.15)"/><path d="M704.15,327.67A75.77,75.77,0,0,0,687.46,302l-52.12,52.12Z" transform="translate(68.29 89.15)"/><path d="M686.88,301.41a75.76,75.76,0,0,0-25.4-16.58l-26.71,68.68,52.1-52.1Z" transform="translate(68.29 89.15)"/><path d="M709.32,354.77a75.47,75.47,0,0,0-4.87-26.34L635.9,354.77Z" transform="translate(68.29 89.15)"/><path class="cls-11" d="M709.33,355.18c0-.14,0-.27,0-.41H635.9l68.55-26.34-.3-.76-68.81,26.44L687.46,302c-.19-.19-.38-.39-.58-.58l-52.1,52.1,26.71-68.68-.76-.3L634.11,353V279.55h-.82V353L607,284.42l-.76.3,26.44,68.81-52.12-52.12-.58.58,52.1,52.1-68.68-26.71-.3.76,68.47,26.62H558.07c0,.14,0,.27,0,.41H709.33Z" transform="translate(68.29 89.15)"/><polygon class="cls-9" points="777.81 452.63 777.81 444.33 777.62 444.33 626.35 444.33 626.35 452.63 777.81 452.63"/><path d="M172.49,196.25a4.41,4.41,0,1,0-4.41-4.41A4.41,4.41,0,0,0,172.49,196.25Z" transform="translate(68.29 89.15)"/><circle cx="293.58" cy="281.02" r="4.41"/><path d="M278.13,196.25a4.41,4.41,0,1,0-4.41-4.41A4.41,4.41,0,0,0,278.13,196.25Z" transform="translate(68.29 89.15)"/><path class="cls-11" d="M555.4,443A32.85,32.85,0,0,1,554,452.5H750V434.05H554.14a32.94,32.94,0,0,1,1.26,9Z" transform="translate(68.29 89.15)"/><path class="cls-4" d="M229.72,420.12V434h261.4a32.69,32.69,0,0,1,8.09-13.92Z" transform="translate(68.29 89.15)"/><path class="cls-4" d="M554.14,434H750V420.12h-204A32.64,32.64,0,0,1,554.14,434Z" transform="translate(68.29 89.15)"/><path class="cls-4" d="M545.59,466.41H750V452.49H554a32.78,32.78,0,0,1-8.42,13.92Z" transform="translate(68.29 89.15)"/><path class="cls-4" d="M491.25,452.49H229.72v13.92h270a32.78,32.78,0,0,1-8.42-13.92Z" transform="translate(68.29 89.15)"/><path class="cls-9" d="M554,452.49A32.85,32.85,0,0,0,555.4,443H532.17a9.59,9.59,0,0,1-19.08,0H489.86A32.77,32.77,0,0,0,554,452.49Z" transform="translate(68.29 89.15)"/><path d="M513,442a9.6,9.6,0,0,1,19.2,0,8.72,8.72,0,0,1-.06,1H555.4a32.76,32.76,0,0,0-9.35-22.92A32.77,32.77,0,0,0,489.86,443h23.23a8.72,8.72,0,0,1-.06-1Z" transform="translate(68.29 89.15)"/><path class="cls-6" d="M522.63,432.42A9.6,9.6,0,0,0,513,442a8.72,8.72,0,0,0,.06,1,9.59,9.59,0,0,0,19.08,0,8.72,8.72,0,0,0,.06-1A9.6,9.6,0,0,0,522.63,432.42Z" transform="translate(68.29 89.15)"/><circle class="cls-8" cx="732.16" cy="532.42" r="8.86"/><path class="cls-8" d="M681.6,434.4a8.86,8.86,0,1,0,8.86,8.86A8.86,8.86,0,0,0,681.6,434.4Z" transform="translate(68.29 89.15)"/><circle class="cls-8" cx="767.62" cy="532.42" r="8.86"/><path class="cls-8" d="M717.05,434.4a8.86,8.86,0,1,0,8.86,8.86A8.88,8.88,0,0,0,717.05,434.4Z" transform="translate(68.29 89.15)"/><rect x="567.81" y="69.79" width="9.23" height="274.04"/><rect x="595.22" y="69.79" width="9.23" height="274.04"/><rect x="622.62" y="69.79" width="9.23" height="274.04"/><circle class="cls-4" cx="532.12" cy="252.78" r="32.59" transform="translate(159.94 733.13) rotate(-67.02)"/><circle cx="600.41" cy="340.74" r="12.3"/><ellipse class="cls-12" cx="701.65" cy="91.33" rx="28.48" ry="90.83"/><ellipse class="cls-12" cx="728.87" cy="91.33" rx="28.48" ry="90.83"/><ellipse class="cls-12" cx="756.1" cy="91.33" rx="28.48" ry="90.83"/><ellipse class="cls-12" cx="367.4" cy="568.63" rx="28.48" ry="90.83"/><ellipse class="cls-12" cx="394.63" cy="568.63" rx="28.48" ry="90.83"/><ellipse class="cls-12" cx="421.85" cy="568.63" rx="28.48" ry="90.83"/><path d="M124.15,32.86a5.67,5.67,0,1,1-5.67-5.67A5.67,5.67,0,0,1,124.15,32.86Z" transform="translate(68.29 89.15)"/><path d="M124.15,55.48a5.67,5.67,0,1,1-5.67-5.67A5.67,5.67,0,0,1,124.15,55.48Z" transform="translate(68.29 89.15)"/><path d="M124.15,78.1a5.67,5.67,0,1,1-5.67-5.67A5.67,5.67,0,0,1,124.15,78.1Z" transform="translate(68.29 89.15)"/><path d="M124.15,100.72a5.67,5.67,0,1,1-5.67-5.67A5.67,5.67,0,0,1,124.15,100.72Z" transform="translate(68.29 89.15)"/><rect x="324.05" y="367.09" width="5.96" height="51.82"/><rect class="cls-8" x="303.07" y="361.35" width="47.93" height="5.39"/><rect class="cls-8" x="234.77" y="272.24" width="47.93" height="5.39" transform="translate(-49.33 334.28) rotate(-42.21)"/><rect class="cls-8" x="256.07" y="250.92" width="5.39" height="47.93" transform="translate(-48.61 401.47) rotate(-52.42)"/><rect class="cls-4" x="533.31" y="270.59" width="19.06" height="13.25"/><rect class="cls-6" x="409.34" y="270.59" width="123.97" height="13.25"/></g></g></g></g></svg>